<svg width="61" height="50" viewBox="0 0 61 50" fill="none" xmlns="http://www.w3.org/2000/svg">
<path d="M6.62918 35.1055C6.62918 35.1055 6.17168 37.5586 7.23441 39.7227C8.12082 41.5352 10.4178 43.9219 14.8118 45.7422C19.2057 47.5625 24.2525 48.2031 31.7011 48.3281C39.1498 48.457 46.8034 47.0312 50.4777 44.3867C54.1568 41.7383 55.4435 39.5117 55.3386 37.0938C55.2338 34.6758 53.6659 33.7578 53.6659 33.7578L6.62918 35.1055Z" fill="#FCB745"/>
<path d="M8.75953 32.6406L6.58641 34.4219C6.58641 34.4219 5.99547 36.8047 9.27422 39.3828C11.7571 41.332 16.151 44.7188 30.7434 44.8086C44.4016 44.8945 48.6955 42.4336 51.3309 40.6953C53.971 38.957 54.9623 35.9375 54.7002 35.0898C54.4428 34.2422 53.6327 33.7539 53.6327 33.7539L8.75953 32.6406Z" fill="#E78B20"/>
<path d="M9.68906 35.1836C9.68906 35.1836 9.07429 36.0391 9.27445 36.582C9.43171 37.0078 9.74148 38.7461 15.8939 40.9492C19.1488 42.1172 24.6865 43.0703 31.8778 42.8984C40.4083 42.6953 47.2422 41.2891 50.5495 38.7422C53.9379 36.1367 53.2898 34.5859 53.2898 34.5859L9.68906 35.1836Z" fill="#FFD290"/>
<path d="M7.93084 29.2461C7.93084 29.2461 5.89115 30.9492 5.55279 31.707C5.23349 32.4219 5.27638 33.4609 5.83873 34.3008C6.59646 35.4258 7.54006 35.543 8.70763 36.1172C9.97053 36.7344 11.9673 38.6602 16.8807 39.5078C21.794 40.3555 28.261 40.7383 31.7256 40.7383C35.1902 40.7383 39.7938 40.6953 44.0876 39.5078C48.3815 38.3203 53.2948 35.9883 54.4338 33.9102C55.5728 31.832 54.4862 30.6016 54.4862 30.6016L52.0033 29.2461H7.93084Z" fill="#6D544D"/>
<path d="M6.73945 27.0859C6.73945 27.0859 5.15726 27.0273 4.77601 28.9922C4.4996 30.4219 5.75773 31.3242 5.75773 31.3242C5.75773 31.3242 5.09054 32.1094 5.86257 33.1055C6.58695 34.0391 7.36374 34.25 8.96499 34.4609C10.1183 34.6133 10.7235 34.332 12.2247 35.0117C14.1071 35.8633 14.9125 37.3867 17.5002 37.8516C20.088 38.3164 22.9855 37.8945 23.0855 37.5547C23.1856 37.2148 19.4637 35.9453 12.7394 32.8477C10.4709 31.8047 8.39312 30.3867 7.82601 29.668C7.2589 28.9492 6.73945 27.0859 6.73945 27.0859ZM39.2791 37.4297C39.2791 37.9805 41.5047 37.7266 42.5388 37.2617C43.573 36.7969 45.2266 35.6094 46.7278 35.0977C48.229 34.5898 48.7961 35.0547 50.9692 34.207C53.1423 33.3594 54.3337 31.3672 54.3337 31.3672C54.3337 31.3672 55.3917 30.2969 55.4775 29.5469C55.6109 28.4023 55.4727 27.8477 54.491 27.5938C53.5093 27.3398 51.3695 29.9766 51.0598 30.2734C50.75 30.5703 46.1655 33.3164 44.3545 34.375C42.5436 35.4336 39.2791 37.1328 39.2791 37.4297Z" fill="#9B7169"/>
<path d="M8.75899 25.6445C8.75899 25.6445 6.17125 25.8984 5.80906 26.7891C5.44688 27.6797 6.58586 28.9922 9.58344 30.6484C12.0425 32.0039 20.4681 35.2656 23.8088 36.9648C27.6356 38.9141 30.8763 41.6367 31.4148 41.6719C32.0867 41.7148 36.7523 37.6523 43.2097 34.082C49.3478 30.6836 53.5559 29.8437 55.057 27.3398C55.8624 25.9961 53.9181 25.2187 53.9181 25.2187L28.9843 17.4609L8.75899 25.6445Z" fill="#FFE869"/>
<path d="M31.7257 39.3828C32.4977 39.3125 36.5342 36.1172 41.2951 33.6602C46.0559 31.2031 53.09 28.5703 54.1241 27.0898C55.1583 25.6094 52.6754 24.6289 52.6754 24.6289L23.7052 20.6445L6.73953 26.1133C6.73953 26.1133 5.81023 26.3672 6.42976 27.0039C7.04929 27.6406 8.03101 28.6992 10.2041 29.8008C12.8443 31.1406 19.621 33.3633 23.9101 35.2695C28.2087 37.1758 30.7964 39.4648 31.7257 39.3828Z" fill="#FFBE01"/>
<path d="M9.07422 26.7461L9.97492 28.7227C9.97492 28.7227 16.4562 34.0781 29.3472 34.2891C42.1762 34.5 49.3676 29.4961 49.3676 29.4961L51.007 26.1211L9.07422 26.7461Z" fill="#F4482B"/>
<path d="M25.9727 30.0117L24.9576 31.3438C24.9576 31.3438 27.1259 32.4102 27.7502 32.5938C28.6462 32.8555 29.5278 32.7617 30.8479 32.4258C32.168 32.0938 37.6484 30.3047 37.6484 30.3047C37.6484 30.3047 42.1805 30.3594 45.0256 30.4023C47.5466 30.4414 50.0724 29.6992 51.3925 28.4492C52.7126 27.1992 54.7618 24.5195 54.7618 24.5195C54.7618 24.5195 55.8293 24.3125 56.5394 23.6445C57.2495 22.9766 57.3019 22.3945 57.3019 22.3945C57.3019 22.3945 57.097 21.2695 56.3392 20.9805C55.5767 20.6875 21.6169 18.9844 21.6169 18.9844L8.01102 19.8164L5.71875 23.6875L13.2818 28.9727L23.9425 29.4727L25.9727 30.0117Z" fill="#A6B732"/>
<path d="M6.42814 20.2773C5.66087 19.9922 4.85548 20.0273 4.49806 20.8594C4.14064 21.6914 4.25025 22.0586 4.25025 22.0586C4.25025 22.0586 3.20658 22.2383 3.07791 23.3125C2.92541 24.6016 4.65056 25.0586 4.65056 25.0586C4.65056 25.0586 4.73158 25.5586 5.41306 26.0586C6.18986 26.6289 6.96666 26.5703 6.96666 26.5703C6.96666 26.5703 9.01587 28.2227 10.3884 28.8867C11.7609 29.5508 13.7386 30.0117 15.7211 29.9688C17.7036 29.9258 18.3613 29.1797 19.8338 29.5938C21.3064 30.0078 25.2095 31.6914 26.7821 31.7187C29.2698 31.7617 34.6502 28.5977 35.8702 28.6406C37.0902 28.6836 42.6231 29.3906 45.5682 29.3906C48.5134 29.3906 49.5809 28.6836 50.2385 27.9766C50.8962 27.2695 52.0161 25.4805 51.6587 25.4375C51.3013 25.3945 48.9661 26.9766 47.2934 26.8516C45.6159 26.7266 44.1481 25.9375 42.0655 25.9375C39.9829 25.9375 29.8321 27.0195 29.1697 27.2695C28.5073 27.5195 25.667 29.3086 25.1094 29.2266C24.5518 29.1445 22.6217 27.8125 21.9641 27.5195C21.3064 27.2266 14.382 27.0391 13.386 27.1875C12.6711 27.293 11.6608 27.4375 11.6608 27.4375C11.6608 27.4375 11.7609 26.1484 10.8983 25.3984C10.0357 24.6484 7.19064 23.3594 7.19064 23.3594C7.19064 23.3594 7.5433 20.6914 6.42814 20.2773ZM51.4538 22.5234C51.4538 22.5234 54.5514 22.5234 55.414 22.4805C56.2766 22.4375 57.2917 22.3984 57.2917 22.3984C57.2917 22.3984 56.9962 21.2461 56.5482 20.6328C55.6332 19.375 53.4315 19.0273 53.4315 19.0273L51.4538 22.5234Z" fill="#C2DD1F"/>
<path d="M5.71922 18.7383L5.38086 19.9648C5.38086 19.9648 10.0655 26.7656 31.12 27.0234C43.4439 27.1758 50.5256 24.1094 53.6519 21.6016C55.5248 20.0977 55.5867 18.6367 55.5867 18.6367L5.71922 18.7383Z" fill="#DE8010"/>
<path d="M4.65036 15.3555C4.38348 18.7539 5.39379 19.9726 5.39379 19.9726C5.39379 19.9726 12.3611 25.1445 30.156 25.3828C48.394 25.625 54.3225 20.668 55.3614 19.2226C56.0238 18.3047 56.5528 16.5039 56.1334 13.8789C55.4376 9.54296 49.3472 1.31639 30.0702 1.37889C10.7932 1.44139 5.04114 10.4219 4.65036 15.3555Z" fill="url(#paint0_radial_180_136)"/>
<path d="M22.9665 5.60936C23.1142 6.27343 19.459 8.48436 18.93 6.36327C18.4344 4.36718 22.8283 4.99608 22.9665 5.60936ZM24.2723 9.76952C24.4629 10.1797 28.2087 10.7695 27.8084 9.03905C27.389 7.23827 23.8815 8.92577 24.2723 9.76952ZM27.5558 5.01952C27.6511 5.60936 32.0164 6.29686 31.9259 4.6328C31.8162 2.57811 27.4462 4.33593 27.5558 5.01952ZM20.3549 11.1367C20.3787 11.2695 19.3065 11.9609 18.2104 12.2305C17.2477 12.4687 16.2612 12.3672 16.1516 11.3867C16.0468 10.4414 16.8665 10.0976 17.8482 10.1797C18.9777 10.2695 20.3073 10.8828 20.3549 11.1367ZM29.4239 13.8984C29.2428 13.2773 25.1396 12.4141 25.416 14.3789C25.6972 16.3359 29.6193 14.5586 29.4239 13.8984ZM33.265 9.42577C33.0648 9.23436 32.126 9.26952 30.9823 9.51561C30.1578 9.6953 29.5478 10.457 30.1197 11.1797C30.7869 12.0234 31.9068 11.668 32.6216 10.9531C33.203 10.375 33.489 9.64061 33.265 9.42577ZM37.6589 4.85936C37.5302 4.74608 36.5914 4.66796 35.8241 4.97264C35.0521 5.27733 34.3849 6.0039 35.0998 6.68358C35.8241 7.36718 36.9012 6.97264 37.4111 6.24999C37.8162 5.66796 37.8543 5.03124 37.6589 4.85936ZM40.6041 10.8047C40.4802 10.168 37.0298 9.03514 37.0537 10.7695C37.0775 12.5469 40.7137 11.3789 40.6041 10.8047ZM45.3745 7.66405C45.2601 7.17577 40.8709 6.78124 41.6191 8.59764C42.3959 10.4922 45.5127 8.2578 45.3745 7.66405ZM39.3316 14.0547C39.3602 13.5078 36.0195 12.2539 35.7717 13.8945C35.5239 15.5351 39.2935 14.7656 39.3316 14.0547Z" fill="#FDEAC8"/>
<defs>
<radialGradient id="paint0_radial_180_136" cx="0" cy="0" r="1" gradientUnits="userSpaceOnUse" gradientTransform="translate(30.244 6.06364) rotate(89.2171) scale(17.2038 36.5699)">
<stop offset="0.517" stop-color="#DF8016"/>
<stop offset="0.643" stop-color="#E58C21"/>
<stop offset="1" stop-color="#F5AC3C"/>
</radialGradient>
</defs>
</svg>
