<svg width="50" height="49" viewBox="0 0 50 49" fill="none" xmlns="http://www.w3.org/2000/svg">
<path d="M48.6109 27.9246L1.38867 27.2222L1.41228 30.7951C1.43589 31.6023 1.90534 32.4121 2.91228 33.0165L12.5053 38.7713L22.0998 44.5247C24.2192 45.7973 27.8567 45.6789 29.7734 44.5247C31.6942 43.3745 30.7345 42.8001 32.6526 41.6473C34.5706 40.4985 35.5289 41.0729 37.4498 39.9241C39.3706 38.7699 47.0456 34.1707 47.0456 34.1707C48.1026 33.5364 48.6303 32.7048 48.6331 31.8718L48.6109 27.9246Z" fill="#F4900C"/>
<path d="M47.0453 25.4813C47.0453 25.4813 4.83144 23.1811 2.912 24.3312C0.992551 25.4813 0.792551 27.6618 2.912 28.9345L12.5051 34.6892L22.0995 40.444C24.2189 41.7167 27.8564 41.5983 29.7731 40.444C31.6939 39.2939 30.7342 38.7195 32.6523 37.5666C34.5703 36.4179 35.5287 36.9922 37.4495 35.8435C39.3703 34.6892 47.0439 30.0887 47.0439 30.0887C49.1634 28.8161 49.1648 26.7526 47.0453 25.4813Z" fill="#FFAC33"/>
<path d="M14.1973 33.5405L24.0181 39.2953C24.0181 39.2953 25.982 40.4441 27.9459 39.2953C29.6084 38.3194 30.8917 36.4179 30.8917 36.4179L14.1973 33.5405Z" fill="#FFD983"/>
<path d="M46.8592 25.2691C44.1634 21.7451 9.78423 19.2638 4.39118 24.2251C3.30229 25.2282 1.24534 27.2467 3.43562 30.2671C4.39118 31.8487 6.37451 32.879 6.6384 32.3904C7.25368 31.2443 8.48146 30.2426 10.3231 30.3392C10.219 30.5815 11.2134 34.7043 11.1009 34.7968C9.81618 35.8667 12.4856 39.5852 15.6134 37.6048C16.3926 39.1129 21.1078 42.8356 24.362 37.7436C25.0092 38.8924 31.8065 40.6401 33.694 35.3399C33.6787 35.4311 33.6828 35.5087 33.6578 35.6067C33.5342 36.0831 34.6606 36.4955 35.8078 36.1008C37.737 35.4393 40.5231 33.7964 41.0162 31.9929C42.3926 31.7575 43.4245 32.1318 44.219 33.1608C44.612 33.6698 45.9606 33.7923 46.537 33.1267C47.5537 31.9576 49.2217 28.3588 46.8592 25.2691Z" fill="#77B255"/>
<path d="M43.0564 34.0836C43.0564 34.8036 41.812 35.3889 40.2786 35.3889H9.72309C8.18976 35.3889 6.94531 34.8036 6.94531 34.0836V25.1669H43.0564V34.0836Z" fill="#FFCC4D"/>
<path d="M46.2658 27.2045C46.2658 30.9721 39.8964 34.0278 32.0408 34.0278C24.1825 34.0278 17.8145 30.9721 17.8145 27.2045C17.8145 23.4356 24.1825 20.3813 32.0408 20.3813C39.8964 20.3813 46.2658 23.437 46.2658 27.2045Z" fill="#BE1931"/>
<path d="M48.6109 19.7579L1.38867 19.0555V22.6285H1.41228C1.43589 23.4356 1.90534 24.2455 2.91228 24.8498L12.5053 30.6046L22.0998 36.358C24.2192 37.6306 27.8567 37.5122 29.7734 36.358C31.6942 35.2078 30.7345 34.6335 32.6526 33.4806C34.5706 32.3318 35.5289 32.9062 37.4498 31.7574C39.3706 30.6032 47.0456 26.004 47.0456 26.004C48.1026 25.3697 48.6303 24.5381 48.6331 23.7051V23.6983L48.6109 19.7579Z" fill="#F4900C"/>
<path d="M47.0453 17.3147L27.8578 5.80789C25.7384 4.53661 22.3023 4.53661 20.1814 5.80789L10.587 11.5627C8.66894 12.7128 9.62727 13.2886 7.70922 14.4387C5.79116 15.5888 4.83144 15.0131 2.912 16.1646C0.992551 17.3147 0.792551 19.4952 2.912 20.7679L22.0995 32.2761C24.2189 33.5487 27.8564 33.4303 29.7731 32.2761C31.6939 31.1259 30.7342 30.5515 32.6523 29.3987C34.5703 28.2499 35.5287 28.8243 37.4495 27.6755C39.3703 26.5213 47.0439 21.9207 47.0439 21.9207C49.1634 20.6494 49.1648 18.586 47.0453 17.3147Z" fill="#FFAC33"/>
<path d="M45.6248 18.4675L25.9817 6.95934C25.9817 6.95934 23.8887 5.8827 22.0526 6.95934L12.3831 12.6243C10.7206 13.5975 10.9484 14.6156 9.2859 15.5888C7.62479 16.5633 6.03729 16.3415 4.37479 17.3147C2.4109 18.4675 4.37479 19.619 4.37479 19.619L24.0165 31.1272C24.0165 31.1272 25.9804 32.276 27.9442 31.1272C29.6067 30.1513 29.2303 29.2258 30.8901 28.2498C32.5526 27.2739 34.2887 27.4073 35.9512 26.4341C37.6137 25.4623 45.622 20.7678 45.622 20.7678C45.622 20.7678 47.4595 19.5415 45.6248 18.4675Z" fill="#FFD983"/>
</svg>
