<svg width="30" height="27" viewBox="0 0 30 27" fill="none" xmlns="http://www.w3.org/2000/svg">
<path d="M13.2402 13.6855C13.2207 13.8483 13.2044 14.0111 13.1914 14.1738C13.0026 16.2637 12.5859 18.1322 11.9414 19.7793C11.5117 20.873 10.9616 21.8984 10.291 22.8555C8.70898 24.9974 6.80794 26.0651 4.58789 26.0586C3.52669 26.013 2.63151 25.6484 1.90234 24.9648C1.16016 24.2812 0.769531 23.3145 0.730469 22.0645C0.723958 20.0723 1.33594 17.888 2.56641 15.5117L2.9375 14.7891C2.98307 14.776 2.99935 14.8542 2.98633 15.0234C2.97331 15.1927 2.90169 15.4303 2.77148 15.7363C2.62174 16.1009 2.47201 16.472 2.32227 16.8496C2.17904 17.2207 2.05208 17.5918 1.94141 17.9629C1.83073 18.3275 1.74284 18.6888 1.67773 19.0469C1.61914 19.3984 1.59961 19.737 1.61914 20.0625C1.74935 21.0391 2.16602 21.7552 2.86914 22.2109C3.57878 22.6732 4.4056 22.9206 5.34961 22.9531C6.61914 22.9661 7.83984 22.6341 9.01172 21.957C9.88411 21.3776 10.584 20.6517 11.1113 19.7793C11.9772 18.6009 12.3451 16.9863 12.2148 14.9355C12.2083 14.5059 12.2539 14.1152 12.3516 13.7637C12.4492 13.4121 12.7259 12.6406 13.1816 11.4492C13.2793 11.1693 13.3574 11.0033 13.416 10.9512C13.4746 10.8926 13.5169 10.8828 13.543 10.9219C13.569 10.9544 13.5658 11.0488 13.5332 11.2051L13.3867 12.2207L13.2402 13.6855ZM8.89453 16.0586C8.92708 16.2344 8.91406 16.4199 8.85547 16.6152C8.80339 16.804 8.70573 17.0156 8.5625 17.25C8.47135 17.3932 8.38672 17.5169 8.30859 17.6211C8.23047 17.7253 8.15234 17.8197 8.07422 17.9043C8.0026 17.9889 7.92448 18.0671 7.83984 18.1387C7.76172 18.2103 7.67383 18.2852 7.57617 18.3633C7.54362 18.3958 7.51432 18.4154 7.48828 18.4219C7.46224 18.4284 7.44271 18.4316 7.42969 18.4316C7.33203 18.4316 7.26693 18.4023 7.23438 18.3438C7.17578 18.2721 7.08789 18.181 6.9707 18.0703C6.85352 17.9596 6.71029 17.8359 6.54102 17.6992L5.73047 17.0449C5.67188 16.9928 5.65234 16.944 5.67188 16.8984C5.69792 16.8464 5.71745 16.8073 5.73047 16.7812C5.9388 16.4102 6.16016 16.026 6.39453 15.6289C6.63542 15.2318 6.85677 14.8704 7.05859 14.5449C7.09115 14.4928 7.11719 14.4538 7.13672 14.4277C7.15625 14.4017 7.17578 14.3887 7.19531 14.3887C7.21484 14.3822 7.23763 14.3887 7.26367 14.4082C7.28971 14.4277 7.32878 14.4505 7.38086 14.4766C7.50456 14.5677 7.64453 14.6719 7.80078 14.7891C7.96354 14.8997 8.12956 15.0299 8.29883 15.1797C8.62435 15.4661 8.82292 15.7591 8.89453 16.0586ZM16.1309 15.4824C16.0788 16.1335 15.9323 16.6868 15.6914 17.1426C15.4505 17.5983 15.1771 17.8262 14.8711 17.8262C14.8711 17.5788 14.9492 16.8105 15.1055 15.5215C15.2682 14.2324 15.3887 13.3112 15.4668 12.7578C15.5514 12.1979 15.6458 11.6055 15.75 10.9805C15.8542 10.3555 15.9551 9.85091 16.0527 9.4668C16.1634 9.14779 16.2806 8.82552 16.4043 8.5C16.5345 8.17448 16.668 7.85221 16.8047 7.5332C16.8958 7.38997 16.9544 7.41276 16.9805 7.60156C16.8177 8.68229 16.668 9.80534 16.5312 10.9707C16.3945 12.1296 16.3001 12.9596 16.248 13.4609C16.2025 13.9622 16.1797 14.2552 16.1797 14.3398C16.1471 14.8737 16.1309 15.2546 16.1309 15.4824ZM16.1406 16.0098C16.1406 16.6543 16.2676 17.1393 16.5215 17.4648C16.7819 17.7904 17.0749 17.9531 17.4004 17.9531C17.459 17.9336 17.5566 17.7188 17.6934 17.3086C17.8366 16.8984 17.957 16.5859 18.0547 16.3711C18.3411 16.4297 18.5462 16.5697 18.6699 16.791C18.8001 17.0059 18.8717 17.2207 18.8848 17.4355C18.8848 18.1777 18.7318 18.9004 18.4258 19.6035C17.9831 20.541 17.3906 21.0098 16.6484 21.0098C16.2188 21.0098 15.8184 20.7624 15.4473 20.2676C15.0697 19.7728 14.8809 18.959 14.8809 17.8262C14.946 17.5983 15.0176 17.3737 15.0957 17.1523C15.1673 16.9245 15.252 16.7096 15.3496 16.5078C15.4408 16.2995 15.5514 16.1107 15.6816 15.9414C15.8053 15.7656 15.9583 15.6159 16.1406 15.4922V16.0098ZM24.0703 17.2598C23.6797 18.2038 23.3509 18.8809 23.084 19.291C22.8236 19.7012 22.599 19.9811 22.4102 20.1309C22.2214 20.2741 21.9512 20.4076 21.5996 20.5312C21.2546 20.6549 20.8867 20.7656 20.4961 20.8633C20.1055 20.9544 19.8158 21 19.627 21C19.5488 21 19.5098 20.9967 19.5098 20.9902C19.4577 20.9251 19.7246 20.707 20.3105 20.3359C20.903 19.9648 21.3913 19.6263 21.7754 19.3203C22.1595 19.0143 22.5013 18.679 22.8008 18.3145C23.1068 17.9499 23.3249 17.569 23.4551 17.1719C23.3835 17.2044 23.2956 17.237 23.1914 17.2695C23.0872 17.2956 22.9766 17.3184 22.8594 17.3379C22.7487 17.3509 22.6413 17.3607 22.5371 17.3672C22.4329 17.3737 22.3418 17.3704 22.2637 17.3574C21.8926 17.3314 21.5833 17.2077 21.3359 16.9863C21.0951 16.7585 20.9811 16.4818 20.9941 16.1562C21.0137 15.9935 21.0592 15.8014 21.1309 15.5801C21.2025 15.3587 21.3522 15.0104 21.5801 14.5352C21.8079 14.0534 22.0553 13.6562 22.3223 13.3438C22.5957 13.0312 22.8496 12.875 23.084 12.875C23.4876 12.875 23.8229 13.0475 24.0898 13.3926C24.3568 13.7311 24.5163 14.1413 24.5684 14.623C24.5814 14.8639 24.5749 15.1048 24.5488 15.3457C24.5293 15.5866 24.5 15.7884 24.4609 15.9512C24.4284 16.1074 24.3763 16.3125 24.3047 16.5664C24.2331 16.8138 24.1549 17.0449 24.0703 17.2598ZM23.748 15.7656C23.748 15.7005 23.6992 15.4434 23.6016 14.9941C23.582 14.8574 23.5723 14.724 23.5723 14.5938C23.5723 14.3594 23.7969 14.1608 24.2461 13.998C24.6172 13.8418 24.9102 13.6725 25.125 13.4902C25.3464 13.3079 25.4701 13.1257 25.4961 12.9434C25.5286 12.8001 25.5384 12.6667 25.5254 12.543C25.5124 12.4128 25.4961 12.2695 25.4766 12.1133C25.457 11.957 25.4473 11.8073 25.4473 11.6641C25.4473 11.5143 25.457 11.4004 25.4766 11.3223C25.4961 11.2051 25.8021 10.2904 26.3945 8.57812C26.4531 8.48698 26.5085 8.48698 26.5605 8.57812C26.5931 8.63672 26.6094 8.75391 26.6094 8.92969L26.5801 11.2441C26.5605 12.071 26.3685 12.8555 26.0039 13.5977C25.6458 14.3398 25.304 14.8965 24.9785 15.2676C24.6595 15.6387 24.4219 15.8828 24.2656 16C23.9661 16.3906 23.7936 16.3125 23.748 15.7656ZM29.7246 1.85938C29.7767 2.04167 29.7734 2.23047 29.7148 2.42578C29.6628 2.62109 29.5684 2.82292 29.4316 3.03125C29.321 3.20052 29.207 3.36003 29.0898 3.50977C28.9792 3.65299 28.8555 3.78971 28.7188 3.91992C28.6341 4.01107 28.5592 4.07617 28.4941 4.11523C28.429 4.1543 28.3737 4.18034 28.3281 4.19336C28.2826 4.19987 28.2435 4.19661 28.2109 4.18359C28.1784 4.17057 28.1491 4.1543 28.123 4.13477C27.8952 3.95247 27.6706 3.77018 27.4492 3.58789C27.2344 3.39909 26.9967 3.22331 26.7363 3.06055C26.7038 3.01497 26.6875 2.98242 26.6875 2.96289C26.6875 2.93685 26.7038 2.89779 26.7363 2.8457L28.2207 0.560547C28.2663 0.501953 28.3086 0.475911 28.3477 0.482422C28.3932 0.482422 28.4421 0.498698 28.4941 0.53125C28.6243 0.609375 28.7546 0.69401 28.8848 0.785156C29.0215 0.869792 29.1452 0.967448 29.2559 1.07812C29.3665 1.1888 29.4642 1.30924 29.5488 1.43945C29.6335 1.56315 29.6921 1.70312 29.7246 1.85938ZM26.7363 2.04492C26.7363 2.07096 26.7396 2.09049 26.7461 2.10352C26.7461 2.12305 26.7493 2.13932 26.7559 2.15234C26.7559 2.16536 26.7559 2.18164 26.7559 2.20117C26.7624 2.21419 26.7656 2.22721 26.7656 2.24023V2.37695C26.7656 2.38997 26.7624 2.40625 26.7559 2.42578C26.7559 2.4388 26.7559 2.45182 26.7559 2.46484L26.7266 2.58203C26.7266 2.59505 26.7233 2.60482 26.7168 2.61133C26.7168 2.61784 26.7168 2.6276 26.7168 2.64062L26.6777 2.75781C26.6647 2.78385 26.6517 2.8099 26.6387 2.83594C26.6322 2.86198 26.6224 2.88802 26.6094 2.91406C26.6094 2.92057 26.6061 2.92708 26.5996 2.93359C26.5996 2.93359 26.5996 2.93685 26.5996 2.94336L26.5508 3.03125C26.5378 3.0638 26.5215 3.0931 26.502 3.11914C26.4824 3.13867 26.4661 3.16146 26.4531 3.1875C26.4401 3.20052 26.4336 3.21029 26.4336 3.2168L26.3164 3.39258L26.2676 3.46094C26.2546 3.47396 26.2415 3.49023 26.2285 3.50977C26.222 3.5293 26.2122 3.54557 26.1992 3.55859C26.1732 3.59766 26.1504 3.62695 26.1309 3.64648L25.9746 3.8418C25.9616 3.85482 25.9551 3.86458 25.9551 3.87109C25.9421 3.88411 25.9258 3.90039 25.9062 3.91992C25.8932 3.93945 25.877 3.95573 25.8574 3.96875L25.7988 4.02734C25.7793 4.0599 25.7533 4.08594 25.7207 4.10547L25.623 4.20312L25.5742 4.24219C25.5026 4.30078 25.4408 4.33984 25.3887 4.35938L25.3301 4.37891H25.2617C25.2096 4.37891 25.1641 4.35938 25.125 4.32031C24.9818 4.20964 24.8418 4.0957 24.7051 3.97852C24.5749 3.86133 24.4349 3.7474 24.2852 3.63672C24.2396 3.59766 24.194 3.56185 24.1484 3.5293C24.0117 3.42513 23.8783 3.33073 23.748 3.24609C23.7415 3.24609 23.7383 3.24284 23.7383 3.23633C23.7057 3.20378 23.6895 3.17448 23.6895 3.14844C23.6895 3.1224 23.7057 3.08333 23.7383 3.03125L25.2324 0.755859C25.2324 0.749349 25.2357 0.742839 25.2422 0.736328C25.2878 0.677734 25.3366 0.654948 25.3887 0.667969C25.3887 0.667969 25.3952 0.671224 25.4082 0.677734C25.4147 0.677734 25.4212 0.68099 25.4277 0.6875L25.4961 0.716797C25.5091 0.729818 25.5221 0.739583 25.5352 0.746094C25.5482 0.746094 25.5612 0.752604 25.5742 0.765625C25.5872 0.772135 25.6003 0.778646 25.6133 0.785156C25.6263 0.791667 25.6393 0.801432 25.6523 0.814453C25.6784 0.827474 25.7044 0.84375 25.7305 0.863281C25.7695 0.889323 25.8086 0.915365 25.8477 0.941406C25.8867 0.960938 25.9258 0.986979 25.9648 1.01953L26.0039 1.04883C26.1081 1.12695 26.2155 1.22135 26.3262 1.33203L26.4434 1.46875L26.5312 1.58594C26.5768 1.65104 26.6126 1.71615 26.6387 1.78125C26.6517 1.80078 26.6647 1.83008 26.6777 1.86914L26.707 1.95703C26.7135 1.96354 26.7168 1.97005 26.7168 1.97656C26.7168 1.98307 26.7201 1.99284 26.7266 2.00586C26.7266 2.02539 26.7298 2.03841 26.7363 2.04492Z" fill="#181818"/>
</svg>
